<?xml version="1.0" encoding="UTF-8" standalone="no"?>
<svg width="820mm" height="170mm" viewBox="0 0 820.00001 170.00001" version="1.1" id="svg8" sodipodi:docname="Indic_MediaWiki_Developers_UG_logo 2.svg" inkscape:version="1.3.2 (091e20e, 2023-11-25)" xmlns:inkscape="http://www.inkscape.org/namespaces/inkscape" xmlns:sodipodi="http://sodipodi.sourceforge.net/DTD/sodipodi-0.dtd" xmlns="http://www.w3.org/2000/svg" xmlns:svg="http://www.w3.org/2000/svg" xmlns:rdf="http://www.w3.org/1999/02/22-rdf-syntax-ns#" xmlns:cc="http://creativecommons.org/ns#" xmlns:dc="http://purl.org/dc/elements/1.1/">
  <sodipodi:namedview id="namedview1" pagecolor="#505050" bordercolor="#eeeeee" borderopacity="1" inkscape:showpageshadow="0" inkscape:pageopacity="0" inkscape:pagecheckerboard="0" inkscape:deskcolor="#505050" inkscape:document-units="mm" inkscape:zoom="0.15595519" inkscape:cx="1138.1475" inkscape:cy="195.569" inkscape:window-width="1440" inkscape:window-height="876" inkscape:window-x="0" inkscape:window-y="24" inkscape:window-maximized="0" inkscape:current-layer="svg8"/>
  <defs id="defs2">
    <clipPath clipPathUnits="userSpaceOnUse" id="clipPath18">
      <path d="M 0,900 H 900 V 0 H 0 Z" id="path16"/>
    </clipPath>
  </defs>
  <metadata id="metadata5">
    <rdf:RDF>
      <cc:Work rdf:about="">
        <dc:format>image/svg+xml</dc:format>
        <dc:type rdf:resource="http://purl.org/dc/dcmitype/StillImage"/>
      </cc:Work>
    </rdf:RDF>
  </metadata>
  <g id="g1213" transform="matrix(0.29285172,0,0,0.29285172,806.15057,238.36784)">
    <g id="g1211" display="none" style="display:none">
      <path id="path1209" display="inline" d="m 18,807.25 3.75,2.5 c 0.41667,0.33333 0.83333,0.66667 1.25,1 0.49973,0.39979 3.0616,0 3.75,0 0.94627,0 2.2206,-1.2402 3,-1.5 0.24938,0 2.8958,-3.6458 3.25,-4 1.1387,-1.1387 2.2645,-1.5058 3.5,-2 1.0498,-0.4199 0.9922,-0.75 2.25,-0.75 2.0446,-0.81784 2.7398,-2.1199 4.5,-3 1.335,-0.6675 1.4274,-2.25 3.5,-2.25 1.5221,0 2.883,-0.15824 4.25,-0.5 0.62708,-0.15677 1.2619,0.19047 1.5,0.25 l -2,3 c 0.29424,-1.1769 -3.1427,0.15447 -4.25,2 -0.85748,1.4291 -2.6386,1.1943 -3.75,1.75 -1.5179,0.75895 -1.6031,2.0883 -3.25,2.5 -2.1795,0.54487 -1.8836,-0.36071 -3,1.5 -0.4587,0.7645 -3.7259,2.3845 -4,2.75 -0.75222,1.003 -0.02813,1.9437 0.25,2.5 -0.57009,0.76012 2.75,-0.20015 2.75,0.75 0,1.9854 -0.17152,1.6054 -1.75,2 -1.4401,0.36002 -1.25,2.1939 -1.25,3.5 0,0.3664 1.5962,1.8462 2,2.25 0.72754,0.72755 1.8455,1 3,1 0.71686,0 0.53314,1.75 1.25,1.75 1.1239,0 1.0874,2.3374 1.75,3 1.1954,1.1954 1.75,-0.43228 1.75,2 v 3 c 0,1.3017 1.9179,1.8357 2.5,3 0.69516,1.3903 1.4198,1.105 3,1.5 0.69571,0.17393 1.4522,2.9043 1.75,3.5 0.74477,1.4895 3.9637,2.3855 5.5,3 2.03,0.812 4.2618,2.7736 5,4.25 0.74773,1.4955 4.0301,2.8976 5.5,4 2.4793,1.8595 7.0994,2.4624 10.25,3.25 0.95747,0.23937 0.57128,2.75 3.75,2.75 2.1099,0 4.2904,0.93434 6.5,1.25 1.4791,0.2113 2.4978,0.93696 3.75,1.25 1.4009,0.35022 2.216,1.9432 3.75,2.25 1.2214,0.24429 2.3726,0.5 3.75,0.5 1.684,0 3.0448,-0.0224 4,-0.5 2.1509,-1.0754 2.25,-1.1958 2.25,-3.5 0,-1.2358 1.8891,-0.75 3,-0.75 h 4.75 4.25 c 1.6222,0 3.1263,-1.1566 4.5,-1.5 1.6669,-0.41673 4.1499,-1.6499 5.25,-2.75 1.258,-1.258 2.1633,0.25 3.5,0.25 1.0916,0 1.2374,0.23735 1.75,0.75 1.9513,0 3.0693,0.22296 3.5,-1.5 0.28513,-1.1405 1.75,-0.7378 1.75,-2.75 0,-1.0334 3.7938,-2 4.75,-2 2.0409,0 3.6071,-0.5119 2.25,1.75 -0.70445,1.1741 -2.3821,2.1321 -3.25,3 -1.2142,1.2142 -1.6232,1.3433 -3.25,1.75 -1.223,0.30575 -1.818,3.022 -2,3.75 -0.2043,0.81721 -2.5085,2.5946 -3,3.25 -0.99714,1.3295 -1.6931,2.2698 -3,3.25 -0.89617,0.67213 -2.1654,2.3307 -2.75,3.5 -0.87478,1.7496 -1.4498,2.4498 -2.75,3.75 -0.89896,0.89896 -3.1789,0.75 -4.5,0.75 -2.2777,0 -2.7451,0.4951 -4.25,2 -0.60485,0.60485 -2.634,0.25 -3.5,0.25 -1.4036,0 0.56239,3.7625 -3.25,3 -0.33692,-0.0674 -0.66667,-0.16667 -1,-0.25 -1.3764,-0.3441 -2.5016,1.2516 -3,1.75 -1.8972,1.8972 -2.4608,2.0723 -4.75,1.5 -0.13193,-0.033 -0.81645,-1.3164 -1,-1.5 -2.2697,-0.56744 -2.25,-0.49246 -2.25,1.75 0,0.95015 -2.0196,0.82822 -2.25,1.75 -0.26424,1.057 -2.9367,0.39082 -3.5,0.25 -1.2158,-0.30394 -2.1614,-1.4193 -3.5,-0.75 -1.4327,0.71636 -1.8564,2.3391 -3.5,2.75 -1.0188,0.2547 -2.414,-0.79099 -3.25,-1 -1.3379,-0.33446 -2.8903,1.5428 -3.5,2 -1.139,0.85421 -1.0695,1.5 -3,1.5 -1.2493,0 -2.2464,-0.59858 -3.25,-1 -0.56886,-0.22754 -1.6216,-2.1216 -2,-2.5 -0.45939,-0.45939 0,-3.9327 0,-4.75 0,-0.66225 -2.4769,-1.1192 -3,-1.25 -1.8713,-0.46783 -1.9718,-1.4789 -3,-2.25 -1.2243,-0.91821 -2.3729,0.78072 -3.25,1 -1.7116,0.42791 -1.25,2.5 -1.25,4 0,1.4336 -1.25,1.5949 -1.25,3.5 0,1.7146 1.1873,1.1245 1.75,2.25 0.42204,0.84408 0.0243,2.8472 0.25,3.75 0.38793,1.5517 0.89889,2.9122 2.25,3.25 1.7747,0.44367 2.0027,0.0108 2.5,2 0.44177,1.7671 1.8909,2.2712 3,3.75 -0.53711,1.7207 0.5,0.5 0.75,0.75 1.3972,1.863 2.7067,2.6635 3.5,4.25 0.65862,1.3172 0.68085,2.1808 1.5,3 1.1338,1.1338 2.3813,2.6313 3.5,3.75 1.5564,1.5564 2.7335,2.7335 4.25,4.25 0.13176,0.13176 0.16667,0.33333 0.25,0.5 0.84826,1.6965 3.8229,3.5729 5,4.75 2.0934,2.0934 4.9239,1.6958 5.75,5 0.50085,2.0034 2.3186,2.5244 2.75,4.25 0.49568,1.9827 2.0907,3.9314 2.75,5.25 1.3174,2.6347 3.3829,5.6622 5.5,7.25 1.6649,1.2487 2.721,3.6512 4,5.25 0.84896,1.0612 1.455,2.955 2.5,4 2.246,2.246 4.0758,4.5947 6,7 1.4564,1.8205 3.9249,2.4497 4.5,4.75 0.27275,1.091 3.1229,2.8115 4,3.25 1.8244,0.91217 4.7985,3.0485 6.5,4.75 1.0399,1.0399 1.25,1.505 1.25,3.25 0,1.0356 1.1496,1.0499 1.75,1.25 0,0.37077 4.0305,0.25 4.5,0.25 1.545,0 2.7704,0.51018 4.25,1.25 1.0542,0.5271 2.0541,1.1521 2.75,1.5 1.4661,0.73304 1.6018,2.0524 2.5,3.25 0.54507,0.72676 2.2049,1.2275 2.75,1.5 0.33333,0.16667 0.66667,0.33333 1,0.5 1.8383,0.91916 2.8911,-0.81456 3.25,-2.25 0.38425,-1.537 1.6788,-2.4644 2.75,-3 1.2163,-0.60816 4.1311,0 5.5,0 1.8575,0 3.471,-0.008 5.25,0.5 1.7043,0.48694 4.1846,-0.18692 5.75,-0.5 2.2378,-0.44756 3.0693,-1.5 5.5,-1.5 1.7922,0 3.2918,-1.6459 4.5,-2.25 1.9554,-0.97772 2.8543,-1.1043 4.25,-2.5 1.1581,-1.1581 2.0799,-2.1224 3.25,-3 0.23348,-0.17511 4.3328,0.6457 4.75,0.75 1.0874,-0.81557 3.4067,-0.99252 4.75,-2 1.6575,-1.2431 2.2779,-2.139 4,-3 1.8836,-0.94178 2.0804,-2.2161 4.75,-2.75 2.5603,-0.51205 4.786,-0.33947 7,-2 1.5137,-1.1353 3.4511,-1.7174 5,-2.75 1.151,-0.76733 0.75,-2.786 0.75,-4 0,-2.2068 1.0198,-3.8899 2.5,-5 1.1813,-0.88599 2.1696,-2.4196 3.25,-3.5 1.6039,-1.6039 1.6551,-1.1551 3.25,-2.75 0.52399,-0.52399 1.03,-0.77996 1.5,-1.25 1.0072,-1.0072 0.5,-4.3979 0.5,-5.75 0,-2.4774 -0.4294,-3.3588 -1.5,-5.5 -0.82832,-1.6566 -0.002,-2.7487 1,-3.5 1.7793,-1.3345 0.0325,-3.3373 -0.25,-4.75 -0.30781,-1.5391 -0.25,-3.1196 -0.25,-4.75 0,-1.3062 0.0453,-2.569 -0.25,-3.75 -0.34196,-1.3678 -0.042,-3.416 0.5,-4.5 0.80766,-1.6153 2.3701,-2.8701 3.5,-4 0.40519,-0.40519 0,-3.6352 0,-4.25 0,-1.9411 0.5,-3.6261 0.5,-5.5 0,-1.0514 2.5,-1.5951 2.5,-3.75 0,-1.603 0.75,3.147 0.75,4.75 0,1.1942 0.046,2.6841 0.25,3.5 0.26275,1.051 1.949,0.98725 3,1.25 1.4086,0.35214 3.4128,0.0872 4.25,-0.75 0.72691,0.72691 2.7408,0.50915 0.75,2.5 -0.58781,0.58781 -2.3504,1.0251 -3.25,1.25 -0.5562,0.13905 -0.25,3.1641 -0.25,3.75 0,1.3419 0.25,2.4398 0.25,4 0,1.4947 0.1191,2.7618 -0.5,4 -0.89615,1.7923 0.30243,2.0524 1,2.75 0.91379,0.91379 2.6653,0.0847 3.25,-0.5 1.0214,-1.0214 0.15088,-2.2748 2.25,-1.75 0.13129,0.0328 0,3.6305 0,4 0,1.5967 -2.1061,1.5265 -3,1.75 -0.407,0.10175 -1.791,2.8321 -2,3.25 -0.57921,1.1584 -0.25,2.9442 -0.25,4.25 v 1 c 0,0.3704 3.9731,0.5 4.5,0.5 1.2924,0 2.6046,0.0364 3.75,-0.25 1.2848,-0.32121 2.6384,-0.25 4,-0.25 2.0473,0 2.5,0.18685 2.5,2.25 0,1.736 -0.59966,2.1372 -1.75,3 -1.2271,0.92035 -1.0576,1.8269 -2.75,2.25 -1.476,0.36901 -1.8864,1.4432 -3,2 -1.1618,0.5809 -0.75,2.3208 -0.75,3.75 0,1.509 0.33868,2.9113 -0.75,4 -0.60703,0.60703 -2.5828,1.2914 -3.5,1.75 -1.4587,0.72936 -1.25,0.29492 -1.25,2.75 0,2.9e-4 1.0901,2.1104 1.25,2.75 0.48765,1.9506 2,-0.68192 2,2 0,1.1305 -1,2.801 -1,4.5 0,0.74588 2.2361,1 3.25,1 0.61822,0 1.5856,1.8356 2,2.25 0.97114,0.97114 0.43518,2.912 0,4 -0.78513,1.9628 1.1721,2.9221 1.75,3.5 0.36218,0.36218 0.10113,3.6545 0.25,4.25 0.42233,1.6893 1.75,0.99089 1.75,3 0,1.3602 1.243,2.972 1.5,4 0.52687,2.1075 0.49228,2.7346 1.25,4.25 0.64509,1.2902 0.5,3.6735 0.5,4.5 0,2.1558 -0.0592,4.0231 -0.75,5.75 -0.70857,1.7714 -1.1097,2.3495 -2.25,4.25 -0.60492,1.0082 -2.3763,2.3763 -3.5,3.5 -0.75939,0.7594 -0.5,2.2647 -0.5,3.5 0,0.6746 -0.59981,1.3992 -0.75,2 v 5.25 c 0,1.6103 -1.25,2.0371 -1.25,0.25 0,-1.6029 -0.75,3.1471 -0.75,4.75 0,1.3492 -1.7846,2.5346 -2.5,3.25 -0.89434,0.8943 -1.25,0.9478 -1.25,3 0,1.9154 -0.87405,3.3703 -1.25,5.25 -0.24478,1.2239 0,2.7513 0,4 0,1.8617 2,0.7096 2,3.25 v 4.25 c 0,1.7405 -0.34991,2.25 1.5,2.25 2.0552,0 2.2111,0.6557 1.75,2.5 -0.2512,1.0048 -1.2357,1.4286 -1.5,2.75 -0.4296,1.7184 1.0599,2.9525 2.25,3.25 1.3274,0.3318 1.149,1.4748 2.25,1.75 1.3548,0.3387 -1.2672,2.8793 -1.75,3 -1.374,0.3435 -1.0632,3.1292 -1.25,4.25 -0.20965,1.2579 0,2.7198 0,4 0,1.6881 -0.40808,2.4184 1.25,2.75 1.6589,0.3318 -0.99306,2.6215 -1.25,2.75 -0.60726,0.3036 -0.25,3.7257 -0.25,4.5 0,1.3362 0.0163,3.0654 0.25,4 0.24338,0.9735 1.8773,-1.0683 2.25,-2 0.75011,-1.8753 1.75,-1.4824 1.75,-3.75 0,-0.6824 2.681,-0.6078 3.25,-0.75 1.2935,-0.3234 -0.32338,-2.7065 0,-4 0.32758,-1.3103 3.2232,-0.1384 3.5,0 1.0541,0.527 -0.027,2.4459 0.5,3.5 0.5134,1.0268 2.1423,1.7144 0,2.25 -1.428,0.357 -2.4124,0.4562 -3.5,1 -1.3364,0.6682 -1.2503,2.4989 -1,3.5 0.30911,1.2365 1.2644,1.0144 2,1.75 1.0122,1.0122 0.76701,1.983 0,2.75 -0.94465,0.9446 -2.704,-0.574 -4,-0.25 -0.71511,0.1788 -1.6757,2.1757 -2.25,2.75 -1.2662,1.2662 -1.1773,2.5568 -0.5,4.25 0.38854,0.9713 0.363,1.976 0.75,2.75 0.32359,0.809 1.509,2.25 2.75,2.25 0.64609,0 -0.77995,4.5599 -1,5 -0.5685,1.137 -0.25,3.1436 -0.25,4.5 0,0.9798 1.2333,1.7333 1.75,2.25 0.58795,0.5879 1.5182,1.75 2.75,1.75 1.5471,0 1.3657,2.7685 1,3.5 -0.61397,1.2279 -1.6249,0.7496 -2,3 -0.21465,1.2879 2,2.4053 2,4.25 v 4.25 c 0,1.1897 1.3706,2 2.5,2 0.85993,0 2.6139,0.341 3.25,0.5 1.7853,0.4463 -1.4814,2.6157 -1.75,2.75 -1.4703,0.7351 -0.64805,3.2039 -0.25,4 0.14907,0.2981 0.66667,0 1,0 0.20069,0.4014 0.33333,0.8333 0.5,1.25 0.41545,1.0386 1,1.4302 1,3.5 0,1.5309 1.5389,0.8445 1,3 -0.53597,2.1439 -0.14897,3.4521 0.75,5.25 0.75104,1.5021 1.1942,1.75 3,1.75 1.8069,0 -0.4282,2.5213 -1,2.75 -1.0136,0.4054 -0.5,3.5253 -0.5,4.5 0,1.7335 -0.75,2.808 -0.75,4.5 0,0.9014 1.8469,0.6938 2.25,1.5 0.58484,1.1697 1,2.2269 1,3.75 0,0.7169 -1.6094,0.5471 -1.75,1.25 -0.41191,2.0596 0.22322,2.6183 1.75,3 1.18,0.295 0.23982,1.648 2,2 1.3728,0.2746 -0.274,2.6048 -1,2.75 -0.44739,0.09 -0.1826,0.7304 -0.25,1 -1.7807,0.3561 1.0511,3.8253 1.75,4 1.1575,0.2894 -0.96641,2.1828 -1.5,3.25 -0.64624,1.2925 -0.77779,2.4444 -0.25,3.5 0.82852,1.657 1.75,0.01 1.75,2.75 v 4 c 0,1.8165 -0.17576,3.6485 0.5,5 0.453,0.906 0.75,2.1821 0.75,4 0,2.3336 1.7752,0.9748 0.5,2.25 -1.5441,1.5441 -1.5,3.5448 -1.5,5.75 0,0.743 0.65647,1.292 1,1.75 0,1.0172 1.75,1.4828 1.75,2.5 0,1.5653 0.0592,2.8979 0.5,4 0.38663,0.9666 0.78863,3.0483 1.75,4.25 0.69097,0.8637 1.5394,1.5787 1.75,2 0.53002,1.06 1,0.3895 1,2.5 v 4 c 0,1.4986 0.17961,2.949 0.5,3.75 0.60263,1.5066 0.4231,2.75 2,2.75 1.0804,0 2.2534,1.7636 2.5,2.75 0.24478,0.9791 2.0256,1.0256 2.75,1.75 0.38066,0.3807 0,3.4352 0,4 0,1.7292 0.41606,1.9142 0.75,3.25 0.12034,0.4813 0.64422,0.6611 1,0.75 0.37488,1.4995 2,2.1668 2,4.25 v 4.25 c 0,1.0365 1,1.2842 1,3 0,0.1569 2.1751,2.9251 2.5,3.25 0.39693,0.3969 2.8451,0.25 3.5,0.25 1.9505,0 3.0447,0.4553 1.5,2 -1.4396,1.4396 -2.8431,1.1862 -3.75,3 -1.195,2.3901 2.3873,2.75 3.75,2.75 1.8794,0 1.5,1.0845 1.5,2.75 0,1.8392 1.5,2.4529 1.5,4.5 0,2.037 -0.60633,4.6437 0.75,6 1.1597,1.1597 2,-0.2352 2,2 1.8778,1.8778 3,0.418 3,3.5 0,1.3477 3.236,0.1938 3.75,2.25 0.21043,0.8417 2.0863,-0.1546 2.5,1.5 0.12419,0.4968 -1.2705,2.6763 -1.5,3.25 -0.49626,1.2406 -1.1094,2.5471 -1.25,3.25 -0.21496,1.0748 2.2696,0.01 3.25,0.5 0.88769,0.4438 2.354,0.25 3.5,0.25 0.13186,0 1.1497,3.783 1.5,4.25 1.1529,1.5372 1.5,1.9481 1.5,4.25 0,1.9314 0.93316,2.5 2.75,2.5 1.1521,0 1.2446,2.2446 1.75,2.75 0.93968,0.9397 1.2832,1.1171 0.75,3.25 -0.3445,1.378 -1.25,1.6066 -1.25,3.75 0,0.825 1.5882,0.9411 1.75,1.75 0.21114,1.0557 2.7039,2.8519 4,3.5 0.71668,0.3583 -1.4202,5.1009 -1.5,5.5 -0.48816,2.4408 -2,0.5837 -2,3.5 0,1.6515 1.4718,1.2429 2.5,1.5 1.3807,0.3452 0.94312,2.2725 1.25,3.5 0.53983,2.1593 0.30532,2.7638 2.25,3.25 1.7299,0.4325 0.96048,1.2105 2,2.25 1.0889,1.0889 1.5,1.32 1.5,3.25 0,2.3805 -0.0788,3.1711 1,4.25 1.1711,1.1711 -1.03,2.294 1.25,2.75 1.98,0.396 2.0548,-0.2809 2.5,1.5 0.29311,1.1724 0.90231,1.4454 0.25,2.75 -0.3699,0.7398 -1.9179,0.9217 -2.25,2.25 -0.24812,0.9925 0,2.4429 0,3.5 -0.60809,2.4324 3,1.3733 3,4 0,2.6962 -1.7611,0.7942 -2.25,2.75 -0.42348,1.6939 0,3.9848 0,5.75 0,2.3646 0.53262,3.0326 2,4.5 0.42618,0.4262 0,3.3199 0,4 0,1.5305 0.28452,3.319 0.75,4.25 0.76457,1.5291 1.0337,1.5337 2.25,2.75 0.66091,0.6609 0.5,2.9534 0.5,4 0,0.5108 1.5,0.9519 1.5,2.75 v 3.75 c 0,0.5577 0.71555,1.1207 1,1.5 0,1.3828 2.5,2.906 2.5,4.75 0,1.8485 2.25,1.8061 2.25,4 0,1.5079 0.78241,2.0324 1.5,2.75 0.20671,0.2067 1.3606,4.4424 1.5,5 0.33211,1.3285 0.40221,2.8588 0.75,4.25 0.2676,1.0704 0.87247,1.4899 1.25,3 0.39902,1.5961 -0.21785,1.2821 1,2.5 0.47958,0.4796 1.83,2.57 2,3.25 0.32767,1.3107 1.6924,2.8847 2.25,4 0.68939,1.3788 0.75,2.9907 0.75,4.5 0,0.3005 0.5,0.3333 0.75,0.5 0,1.4554 3.5992,-0.3017 4.25,1 0.43933,0.8787 1.7254,1.7254 2.25,2.25 1.7282,1.7282 1.9678,3.7178 3.5,5.25 1.1856,1.1856 2.4541,2.6888 3.25,3.75 0.87114,1.1615 2.1411,2.1411 3.25,3.25 1.1913,1.1913 2.2129,1.9258 2.75,3 0.72746,1.4549 0.79418,2.5 2.5,2.5 1.1698,0 0.75,2.0716 0.75,3 v 4.5 c 0,1.3302 1.2258,1.1534 1.5,2.25 0.0202,0.081 2.1325,0.28 2.5,1.75 0.39736,1.5895 0.37486,2.2186 1.75,3.25 0.63575,0.4768 1.2724,2.0224 1.75,2.5 1.1904,1.1904 1.5,2.2486 1.5,4 -0.38877,1.5551 2.25,2.6471 2.25,4.25 0,2.6216 1.5,0.8242 1.5,3 0,1.2036 0.51571,2.7814 1,3.75 0.63983,1.2797 0.64301,2.5721 1,4 0.36642,1.4657 0,3.4727 0,5 0,1.2964 2.1702,1.5905 2.75,2.75 0.9831,1.9662 -0.4815,2.5 2.25,2.5 3.0631,0 1.1087,1.0688 0.25,2.5 -0.73684,1.2281 -0.75,2.3545 -0.75,4 0,1.5919 0.65235,2.8047 1.25,4 0.7949,1.5898 1.3322,2.9966 2,5 0.51852,1.5556 2.04,1.9099 2.5,3.75 0.45765,1.8306 2.1972,4.0963 3.25,5.5 0.1,0.1333 0,0.3333 0,0.5 1.2403,1.6537 1.0788,5.315 1.5,7 0.62136,2.4854 0.82973,2.4973 2.5,3.75 1.7139,1.2854 2.75,2.0787 2.75,4.25 0,1.4713 1.75,2.2707 1.75,4.25 0,2.4755 -0.66717,1.1657 -1.5,-0.5 -0.69671,-1.3934 -1.053,-2.8559 -1.75,-4.25 -0.93765,-1.8753 -2,0.1399 -2,1.5 v 4.25 c 0,0.4836 2,-0.083 2,1.75 0,1.4057 1.75,1.7571 1.75,3.75 0,1.3303 1.8423,1.4212 2.5,1.75 0.0787,0.039 0,1.3284 0,1.5 1.1985,0.5992 0.75,4.5748 0.75,5.75 v 5 5 4 c 0,2.5232 -0.1676,2.3689 2.5,2.75 1.7636,0.2519 0.20331,3.6566 1,5.25 1.0358,2.0717 1.8492,3.6984 2.75,5.5 0.72194,1.4439 0.62978,3.5191 1,5 0.24376,0.975 2.1862,1.4308 2.5,3 0.34282,1.7141 0.65622,2.1249 1,3.5 0.11845,0.4738 0.26684,0.1334 0.5,0.25 0.46088,1.8435 1.0175,4.07 1.5,6 0.40543,1.6217 0.0757,1.8314 1.75,2.25 1.8976,0.4744 1.8036,2.3006 4.5,2.75 2.2082,0.368 2.2981,-0.5096 2.75,1.75 0.49925,2.4962 1.0677,2.8177 3,4.75 1.1918,1.1918 0.72887,2.8644 2.5,3.75 1.056,0.528 1.7741,1.768 2.75,2.5 1.0506,0.7879 1.9318,2.4091 2.75,3.5 1.0737,1.4316 2.2939,3 4,3 1.5497,0 2.6662,1.9147 3,3.25 0.0344,0.1374 2.586,1.918 2.75,2 1.236,0.618 2.3151,2.3151 3,3 0.69057,0.6906 2.1416,1.75 3.5,1.75 2.032,0 2.8364,0.7819 3.75,2 0.76758,1.0234 4.0194,1.5194 5.25,2.75 0.87739,0.8774 2.3928,1.8214 3.75,2.5 0.92813,0.4641 2.9043,0.75 4,0.75 h 3.25 c 2.1946,0 1.7758,1 4.5,1 2.5082,0 3.9734,-0.2607 1.5,-1.25 -2.1133,-0.8453 4.0281,-2.2562 6.25,-2.75 5.0874,-1.1305 3.9874,-1.4875 7.25,-4.75 1.0236,-1.0237 3.7117,-1.1779 5,-1.5 1.5377,-0.3844 2.7537,-1.8768 4,-2.5 1.3114,-0.6557 2.282,-1.3365 3.5,-2.25 0.97925,-0.7344 2.7054,-0.2054 3.75,-1.25 1.385,-1.385 2.1088,-2.0544 4,-3 0.90888,-0.4544 0.5,-2.7438 0.5,-3.75 0,-1.6425 -0.25,-3.0565 -0.25,-4.75 0,-1.4364 -0.5,-2.6896 -0.5,-4.25 0,-1.6429 -0.0851,-3.0798 0.5,-4.25 0.63825,-1.2765 0.45281,-3.132 1,-4.5 0.51621,-1.2905 -0.0336,-2.9329 0.5,-4 0.7222,-1.4444 2.1732,-2.4232 3.25,-3.5 -1.8295,0 3.4563,-1.4563 4.75,-2.75 1.3378,-1.3378 3.5343,-1.5172 5,-2.25 2.0278,-1.0139 3.6494,-2.25 6.25,-2.25 3.3565,0 5.6855,0.5645 7.75,-1.5 l 0.75,-0.75 c 1.0762,-1.0762 3.9727,-0.6045 5.5,-1.75 1.4363,-1.0772 3.1362,-1.25 4.75,-1.25 2.716,0 2.9153,-0.7077 5,-1.75 1.5834,-0.7917 4.822,-0.107 6.25,0.25 0.86989,0.2175 2.0971,0 3,0 0.41223,0.1031 0.83333,0.1667 1.25,0.25 1.5504,0.3101 1.6771,0.75 3.75,0.75 2.0517,0 3.6126,-0.5 5.75,-0.5 2.7801,0 4.4942,1.2442 6.25,3 0.63148,0.6315 0.2882,0.096 0.75,0.25 3.2335,3.2335 -0.22136,-9.1393 -6,-6.25 -2.278,1.139 -4.6481,0.449 -6.75,1.5 -1.5841,0.7921 -4.8649,-0.923 -6.5,-1.25 -2.3539,-0.4708 -4.8017,-2.0517 -6.5,-3.75 -1.4057,-1.4057 -2.25,-4.9648 -2.25,-7 0,-1.5321 0.66667,-3.1667 1.75,-4.25 0.17678,-0.1768 0,-0.5 0,-0.75 0,-1.6895 4.2292,-4.6666 4.75,-6.75 0.54137,-2.1655 2.8309,-3.8309 4.5,-5.5 2.02,-2.02 3.3203,-4.3062 5.75,-6.25 1.6701,-1.3361 3,-1.7882 3,-4 1.3371,-1.0697 -0.54648,-4.3662 -1,-5.5 -0.77916,-1.9479 -0.12754,-4.2449 0.75,-6 0.87522,-1.7504 5.277,-3.8108 7,-4.5 0.41667,-0.1667 0.83333,-0.3333 1.25,-0.5 1.2564,-0.5026 4.9247,-0.081 6.25,0.25 2.8924,0.7231 3.1829,-4.6341 6,1 1.6316,3.2633 1.9346,-2.3154 3.5,-0.75 1.1654,1.1655 4.7573,-1.6195 6.25,-0.5 1.1181,0.8386 1.6048,1.25 3.5,1.25 1.3802,0 1.25,-3.0037 1.25,-4 v -4.75 c 0,-2.4554 -1,-3.3643 -1,-5 0,-1.6101 0.25,-2.6185 0.25,-4 v -5 -5 c 0,-1.2336 -0.53688,-2.1475 -0.75,-3 0,-3.458 0.25,-7.0037 0.25,-10.5 0,-3.1289 -0.5,-5.6103 -0.5,-8.75 v -9.5 c 0,-1.1384 -3.5831,-1.25 -4.5,-1.25 -0.10288,0 1.8376,-4.9379 2,-5.75 0.52601,-2.63 -1.5,-5.5064 -1.5,-8.25 0,-3.1854 2,-4.6216 2,-7.5 0,-1.8106 0.12358,-0.1236 0.75,-0.75 0,-4.2602 0.5,-5.849 0.5,-8.5 0,-1.2904 4.0938,-5.7618 4.75,-6.5 0,-2.4131 3.5,-2.4777 3.5,-5.75 0,-1.6032 5.2693,-4.3465 5.75,-6.75 0.39092,-1.9546 0.74372,-2.4749 1.25,-4.5 0.28158,-1.1263 1.7987,-1.9446 2,-2.75 0.3861,-1.5444 -2.042,-2.646 -2.75,-3 -1.1648,-0.5824 -1.8812,-1.0124 -2.5,-2.25 -0.53573,-1.0715 3.3171,-0.5 4.25,-0.5 3.8196,0 1.6165,-0.041 2,-1 0.16667,-0.4167 0.33333,-0.8333 0.5,-1.25 0.5474,-1.3685 2.447,-2.447 3.5,-3.5 0.72169,-0.7217 1.6027,-2.9553 2,-3.75 0.6078,-1.2156 0.5,-2.6054 0.5,-4 0.82632,-1.6526 0.36957,-3.9891 1.25,-5.75 1.6213,-3.2426 -1.7938,-3.9562 1.5,-7.25 0.59096,-0.591 0.86609,-6.1965 1,-7 0.48053,-2.8832 0.95784,-5.6657 2.25,-8.25 1.6647,-3.3295 -4.0592,-4.0592 -6.25,-6.25 -1.3799,-1.3799 -3.0806,-3.0403 -5,-4 -1.4364,-0.7182 -9.4405,-2.0298 -4.5,-4.5 2.0314,-1.0157 3.4533,-2.3126 5.25,-3.75 0.57459,-0.2873 -0.66802,3.6455 1.75,4.25 0.69561,0.1739 3.5356,5.4796 4.75,6 0.32819,0.1407 -0.75,-3.5262 -0.75,-7.25 0,-2.0716 -0.5,-3.3666 -0.5,-5.25 0,-2.6272 -0.27388,-4.0597 -1.25,-6.5 -1.1323,-2.8308 -1.9737,-4.1789 -4.25,-6 -0.092,-0.074 -0.16667,-0.1667 -0.25,-0.25 -1.2517,-1.0014 -0.18717,-3.2491 -0.75,-4.75 -0.87152,-2.324 -0.17015,-4.8351 -2.5,-6 -1.442,-0.721 -2.8765,-0.6006 -4.5,-1.25 -1.5506,-0.6203 4.5646,-2.8146 8,-6.25 1.272,-1.2719 0.75,-4.0719 0.75,-6 0.96622,-0.9662 -0.031,-4.8741 -0.25,-5.75 -0.50408,-2.0163 -0.39676,-2.5435 -1.25,-4.25 -1.1276,-2.2553 -2.7913,-4.124 -3.5,-6.25 -0.80657,-2.4197 0.20735,-4.3353 -1,-6.75 -0.93952,-1.879 -1.5,-4.1448 -1.5,-6.25 0,-2.1815 -0.0751,-3.6502 -1,-5.5 -1.0729,-2.1458 1.75,-4.2151 1.75,-6.25 0,-2.3475 1.5,-2.9211 1.5,-5 0,-1.3869 1.978,-2.14 2.25,-3.5 0.22704,-1.1352 2.2768,-0.846 3,-1.75 1.6872,-2.1089 0.15076,-4.8677 1.75,-7 2.171,-2.8946 2.75,-4.0883 2.75,-7.75 0,-1.3632 6.554,-4.3463 8,-5.25 3.9198,-2.4498 7.9211,-3.5856 12.25,-5.75 0.96632,-0.4832 3.603,0 4.75,0 1.821,0 2.791,0.4477 4,0.75 0.90192,0.2255 0.5,3.5887 0.5,4.5 0,2.7592 0.71759,2.7338 2.25,3.5 0.15514,0.078 0.7785,0 1,0 0.40139,0.2007 0.83333,0.3333 1.25,0.5 3.2208,1.2883 6.3365,-2.2691 6.75,-4.75 1.3968,-8.3807 3.1037,-3.7594 5,-8.5 1.1706,-2.9265 2.7173,-4.1357 3.75,-7.75 0.52895,-1.8513 2.1841,-2.9862 2.75,-5.25 0.40821,-1.6328 2.25,-1.7308 2.25,-4 0,-2.1521 -0.61565,-2.2874 -0.25,-3.75 0.17944,-0.7178 2.5549,-2.0274 3,-2.25 1.5618,-0.7809 1.9781,-1.5 3.75,-1.5 1.5643,0 3.3674,-0.5305 3.75,1 0.5317,2.1268 1.3586,1.75 3.5,1.75 h 5.5 c 1.4729,0 3.082,1.416 4.25,2 1.1653,0.5826 3.3443,-1.3877 4.25,-1.75 1.4852,-0.5941 2.8678,-2.1839 4,-2.75 0.93928,-0.4696 3.706,0 4.75,0 2.1312,0 3.01,-1.43 3.25,-1.75 1.2913,-1.7217 4.4818,-2.9238 6.25,-4.25 2.2122,-1.6592 4.1873,-1.2768 7.5,-1.75 2.7768,-0.3967 1.0743,-1.1757 0.25,-2 0.59301,-0.085 1.2078,-1.5 3.25,-1.5 1.5151,0 0.0191,-5.3647 0.25,-6.75 0.40836,-2.4502 -0.75,-3.8162 -0.75,-6.5 0,-2.4501 -1.75,-2.8624 -1.75,-7 0,-6.9535 2.6476,-5.2555 6.5,-9.75 0.23009,-0.2684 0.5,-0.5 0.75,-0.75 3.8399,-3.8399 7.1709,-5.4684 12.25,-7.5 1.7612,-0.7045 4.462,-3.462 5.75,-4.75 1.1532,-1.1532 1.4242,-2.5 3.5,-2.5 1.6954,0 3.1156,-0.5 4.75,-0.5 1.5752,0 3.1558,-0.9529 4.25,-1.5 2.0344,0 3.5614,-2.0614 5,-3.5 1.4297,-1.4297 3.3821,-3.3821 4.75,-4.75 1.0342,-1.0342 2.1982,-2.2112 3.25,-3 1.5735,-1.1802 2.75,-1.6489 2.75,-3.5 0,-1.8506 1.8602,-2.441 2.25,-4 0.39812,-1.5925 0.008,-2.7655 0.75,-4.25 0.95375,-1.9075 1.1287,-2.4776 0.75,-4.75 -0.23725,-1.4235 2.4746,-2.7246 3.25,-3.5 1.1275,-1.1275 2.0079,-1.3789 3.25,-2 1.4218,-0.7109 2.2941,-1.7941 3.25,-2.75 1.4858,-1.4858 3.3433,-2.9217 5,-3.75 2.5181,-1.2591 4.878,-2.564 7.25,-3.75 1.3223,-0.6611 3.1373,-2.1373 4,-3 0.44225,-0.4422 2.6685,-0.6889 2.75,-0.75 0.093,-0.07 0.8175,0 1,0 3.4926,-2.6194 1.8025,-5.642 4.75,-8 5.0732,-4.0586 8.0286,-7.7857 12,-12.75 2.7567,-3.4458 4.5057,-2.8893 5.75,-6 0.46766,-1.1691 1.2767,-2.7767 2.25,-3.75 1.3359,-1.3359 2.4141,-2.9141 3.75,-4.25 1.0136,-1.0136 2.3396,-1.8584 2.75,-3.5 0.32401,-1.296 -0.074,-2.704 0.25,-4 0.33886,-1.3555 1.8528,-2.4113 2.25,-4 0.56585,-2.2634 -0.59072,-2.25 2,-2.25 0.86022,-3.4409 7.0101,-5.1402 8.75,-7.75 1.1472,-1.7208 5.4902,-5.2402 7,-6.75 1.2588,-1.2588 2.8734,-2.2468 3.5,-3.5 0.68096,-1.3619 2.5086,-1.7672 3.25,-3.25 0.7925,-1.585 1.25,-2.0244 1.25,-4 0,-2.8921 -2.7991,-0.6518 -3.25,0.25 -0.76947,1.5389 -1.4191,2.3088 -2.5,3.75 -0.3968,0.5291 -2.5513,0.045 -3,-1.75 -0.43277,-1.7311 0.0419,-2.3338 0.75,-3.75 0.51753,-1.0351 2.0319,-1.774 3,-2.5 2.0864,-1.5648 3.25,-2.3693 3.25,-5 0,-0.3312 4.2648,-2.3861 4.75,-2.75 1.2752,-0.9564 2.4568,-2.3534 3.75,-3 1.014,-0.507 3.342,0 4.5,0 1.0585,0 1,1.7552 1,2.75 0,0.2124 -3.3454,3.4408 -3.75,4.25 -0.92922,1.8584 -1.2741,1.75 1.25,1.75 2.6845,0 1.1694,1.5403 -0.75,2.5 -0.40239,0.2012 2.6223,0.6277 3.5,-0.25 1.703,-1.703 0.76529,-2.2531 4.5,-3 1.8354,-0.3671 4.8765,-1.1882 6,-1.75 1.1539,-0.577 1.4587,-0.9897 2.5,-1.25 3.9619,-1.981 10.4,-4.775 14.75,-5.5 0.99322,-0.1655 1.8333,-0.8333 2.75,-1.25 3.7084,-1.6856 9.2043,-1.4756 10,-6.25 0.12074,-0.7245 4.2141,-3.7141 5,-4.5 0.37731,-0.3773 0.83333,-0.6667 1.25,-1 1.2904,-1.0323 2.4442,-2.0206 3.75,-3 1.3029,-0.9772 2.7051,-2.9551 3.75,-4 l 0.75,-0.75 c 1.1585,-1.1585 1.75,-1.6903 1.75,-3.5 0,-1.3799 2.6602,-2.4775 3.75,-2.75 1.6002,-0.40004 1.6658,-1.4131 2,-2.75 0.43295,-1.7318 -0.15215,-2.4511 -1.25,-3 -1.6586,-0.82931 -2.25,0.45518 -2.25,-2 0,-3.1523 0.24547,-2.6982 3.5,-4 1.4909,-0.59637 2.6608,-2.9956 4,-4 1.4353,-1.0764 2.755,-2.1821 4.25,-3.25 1.5489,-1.1063 -0.57758,-2.6034 -1.25,-3.5 -0.81,-1.08 -0.28867,-1.7597 -2.25,-2.25 -1.3098,-1.7464 0.45018,-4.2301 1.75,-4.75 3.8979,-1.5592 -1.4564,-4.8828 -2.25,-5.5 -0.78658,-0.61178 -1.6614,-3.6614 -2.75,-4.75 -1.5177,-1.5177 -1.4188,-3.9479 -2.5,-5.75 -1.1619,-1.9365 -0.70577,-4.4765 1,-5.5 3.2116,-1.927 6.3637,-4.1137 9,-6.75 1.9348,-1.9348 1.9965,-3.8707 3.5,-5.75 0.8926,-1.1158 5.2918,-0.52091 6.75,-1.25 1.9805,-0.99027 3.6112,0.88884 4.75,-0.25 1.1693,-1.1693 1.3236,-1.7868 2.75,-2.5 2.1425,-1.0712 3.6087,-1.5 6.25,-1.5 1.7917,0 2.9479,0.0313 4.25,-0.75 1.165,-0.69903 1.9534,-1.4258 3.25,-1.75 1.7831,-0.44577 3.5091,0.24093 4.75,-1 0.4084,-0.40837 0.5649,-0.42366 1,-0.75 1.2368,-1.2368 1.8796,-3.1518 4,-4 2.2073,-0.88292 2.9677,-3.5443 3.75,-5.5 0.1116,-0.27897 -0.5,-0.33333 -0.75,-0.5 0.1547,-0.38687 0,-0.83333 0,-1.25 0,-1.18 2.8151,-4.5651 3.75,-5.5 1.4048,-1.4048 2.3924,-2.7139 4,-4 2.1467,-1.7174 -2.8185,-5.7046 0,-5 3.6363,0.90908 1.25,13.738 1.25,16.25 0,7.1118 14.582,-0.50907 16.75,-0.75 1.1945,-0.13272 1.0385,-2.2789 2,-3 0.359,-0.26926 0.8333,-0.33333 1.25,-0.5 2.4522,-1.8391 0.4923,-4.75 3.5,-4.75 3.0193,0 2.8373,-4.5635 4,1.25 0.506,2.5298 5.0937,4.4063 6.75,2.75 0.7601,-0.76011 4.6135,0.25 5.75,0.25" style="display:inline;fill:none;stroke:#000000;stroke-width:1px"/>
    </g>
  </g>
  <path style="display:none;fill:#ffffff;stroke-width:1.08646" class="st1" d="m 307.61629,-294.80511 c 39.00378,-5.54093 68.98997,-39.00378 68.98997,-79.63723 0,-24.66256 -11.08186,-46.71762 -28.5738,-61.38477 l -40.52481,40.52481 v 100.49719 z" id="path3599"/>
  <path style="display:none;fill:#ffffff;stroke-width:1.08646" class="st1" d="M 284.90936,-294.80511 V -395.3023 l -40.52481,-40.52481 c -17.49194,14.7758 -28.5738,36.83086 -28.5738,61.38477 0.10865,40.52481 30.09484,74.0963 69.09861,79.63723 z" id="path3601"/>
  <path style="display:none;fill:#ffffff;stroke-width:1.08646" class="st1" d="m 366.17628,-444.30147 c 18.68704,18.68704 28.89973,43.45824 28.89973,69.85913 0,26.40088 -10.32133,51.17208 -28.89973,69.85912 -18.68705,18.68705 -43.45825,28.89974 -69.85913,28.89974 -26.40088,0 -51.17208,-10.32134 -69.85913,-28.89974 -18.68704,-18.5784 -28.89973,-43.45824 -28.89973,-69.85912 0,-26.40089 10.32133,-51.17209 28.89973,-69.85913 1.62969,-1.62969 3.25937,-3.15072 4.88906,-4.56312 l -22.59829,-22.59828 c -1.62969,1.52103 -3.25937,3.04207 -4.88905,4.67176 -11.95102,11.95101 -21.40319,25.9663 -28.03057,41.50262 -6.84468,16.07955 -10.32133,33.24556 -10.32133,50.84615 0,17.60058 3.47665,34.76659 10.32133,50.84614 6.62738,15.53632 15.9709,29.55161 28.03057,41.50262 11.95101,11.95102 25.9663,21.40319 41.50262,28.03057 16.07955,6.84468 33.24556,10.32133 50.84614,10.32133 17.60059,0 34.7666,-3.47665 50.84615,-10.32133 15.53632,-6.62738 29.55161,-15.9709 41.50262,-28.03057 11.95102,-11.95101 21.40319,-25.9663 28.03057,-41.50262 6.84467,-16.07955 10.32133,-33.24556 10.32133,-50.84614 0,-17.60059 -3.47666,-34.7666 -10.32133,-50.84615 -6.62738,-15.53632 -15.9709,-29.55161 -28.03057,-41.50262 -1.62968,-1.62969 -3.25937,-3.15073 -4.88905,-4.67176 l -22.59829,22.59828 c 1.84698,1.4124 3.47666,2.93343 5.10635,4.56312 z" id="path3603"/>
  <circle style="display:none;fill:#ffffff;stroke-width:1.08646" id="red_circle_52_" class="st1" cx="296.31717" cy="-465.0528" r="40.742104"/>
  <g transform="matrix(0.59289394,0,0,0.59289394,227.6147,68.362366)" id="g1366">
    <path style="fill:#339966;stroke-width:0.999133" d="m -936.16797,-179.9668 c -3.13373,-0.0327 -4.79753,0.6444 -9.69336,2.9961 -5.9142,2.83996 -7.55469,3.24803 -11.1875,2.77148 l -4.25586,-0.55859 -6.21093,6.43164 c -3.41583,3.53818 -6.21094,6.71149 -6.21094,7.05078 0,1.97752 2.24462,4.15107 4.87695,4.72266 1.66715,0.36211 4.49584,1.8047 6.28711,3.20507 1.79093,1.40053 4.58795,3.22833 6.21484,4.06055 1.62713,0.83217 3.22984,2.36553 3.56055,3.4082 0.33097,1.0428 1.61691,2.56012 2.85742,3.37305 4.37783,2.86854 2.90936,6.27844 -5.60547,13.00781 l -3.67382,2.90235 1.08007,13.8457 c 1.32968,17.055349 0.72779,16.299163 17.7461,22.251953 0.68477,0.239482 1.69296,1.622507 2.24023,3.072266 0.62113,1.64567 2.67647,3.580821 5.46875,5.15039 2.45987,1.382854 4.72398,2.92078 5.03125,3.417969 1.21043,1.958714 -0.74046,4.45142 -4.65234,5.945313 -2.25914,0.862862 -5.17748,2.409925 -6.48633,3.439453 -2.20029,1.730827 -2.38086,2.437877 -2.38086,9.351562 v 7.476563 l -4.70117,5.146484 c -2.58633,2.829638 -5.70665,7.125328 -6.9336,9.546875 -1.42049,2.803326 -3.92102,5.618349 -6.88281,7.746094 -3.325,2.388869 -5.38843,4.845267 -7.23242,8.611328 -1.77154,3.618383 -6.62659,9.528593 -15.50391,18.875 -7.10906,7.4843107 -13.53263,13.956628 -14.27539,14.384766 -1.91671,1.105036 -17.21379,3.48269 -18.89839,2.9375 -0.7722,-0.249949 -2.1167,-1.711436 -2.9883,-3.248047 -0.8718,-1.5364409 -2.1277,-2.7988284 -2.791,-2.7988284 -1.8107,-0.00849 -17.393,16.5100394 -18.0528,19.1386714 -0.88,3.506353 1.8043,6.761237 6.6407,8.054688 l 4.1582,1.113281 v 7.570313 c 0,8.179699 0.4568,9.076211 5.9668,11.691406 2.4041,1.141247 3.0461,2.443271 5.6855,11.521484 1.6366,5.629285 3.2637,12.178012 3.6133,14.552735 l 0.6347,4.318359 -4.0546,1.38086 c -3.5836,1.218379 -4.3615,1.218791 -6.6875,0 -2.2291,-1.167772 -3.4717,-1.200069 -8.1133,-0.214844 -4.4154,0.937039 -7.3819,0.928184 -15.2539,-0.04297 l -9.7735,-1.205078 -2.7402,2.625 c -1.8878,1.809611 -2.4614,2.963811 -1.8398,3.712891 0.6182,0.745035 0.1746,1.770797 -1.4122,3.261718 -1.2732,1.196134 -2.3144,3.223386 -2.3144,4.507815 0,3.14904 7.3213,10.04318 14.3789,13.53906 l 5.4629,2.70508 7.7363,-2.0293 c 4.2552,-1.11579 8.3749,-2.27308 9.1543,-2.57226 4.9898,-1.91458 -4.4182,8.47266 -10.1269,11.18164 -4.0024,1.899 -13.1362,3.66206 -16.0684,3.10156 -1.1896,-0.22755 -2.1641,0.0149 -2.1641,0.53711 0,2.52918 20.5197,26.27033 26.9356,31.16406 3.7467,2.8577 4.5103,3.08578 8.3672,2.51953 5.057,-0.74235 14.9506,-4.54032 19.8633,-7.625 4.04707,-2.54163 4.67788,-3.88596 6.7773,-14.44336 0.84279,-4.23809 1.93601,-8.12502 2.42773,-8.63671 1.39729,-1.45415 4.14007,2.58715 4.85742,7.15624 0.3834,2.44093 1.40126,4.5998 2.60157,5.51954 l 1.9707,1.51172 -2.10547,2.95703 c -2.27622,3.19643 -2.25032,4.08022 0.4082,13.51757 1.51643,5.38359 1.50199,5.73951 -0.50195,12.49024 -2.53508,8.5397 -2.12325,20.21245 0.7832,22.20312 1.48592,1.01777 1.58169,1.79252 0.81055,6.51368 -0.75972,4.65184 -0.53823,6.58493 1.66992,14.65429 1.3993,5.11214 3.34487,14.53126 4.32422,20.9336 2.51788,16.46378 5.69231,25.04006 16.18945,43.74023 4.94861,8.81539 6.72487,13.78206 11.10157,31.03516 2.751,10.84525 5.48585,17.07398 11.86328,27.01562 7.55176,11.77318 14.25623,27.57766 18.58398,43.80664 1.09595,4.1102 2.95258,9.67314 4.12695,12.36133 2.71828,6.22295 10.42032,14.39096 16.35743,17.34961 l 0.002,0.006 c 4.31773,2.15161 4.83719,2.21278 8.33008,0.98047 6.01334,-2.12164 9.03213,-4.7814 10.15234,-8.94141 0.55896,-2.07496 0.80659,-4.32316 0.54883,-4.99414 -0.3205,-0.83516 2.19678,-2.19915 7.97852,-4.32226 7.64178,-2.80611 8.47301,-3.34589 8.71679,-5.66407 0.29624,-2.81348 7.2817,-16.05139 9.05664,-17.16406 0.6107,-0.38275 2.99379,-0.91644 5.29688,-1.18555 l 4.1875,-0.48828 -0.2793,-15.35937 -0.27734,-15.35938 4.68945,-10.01758 c 2.57911,-5.50891 5.1688,-11.91671 5.75391,-14.24023 1.03895,-4.12578 0.99071,-4.29899 -2.00782,-7.39258 -2.5994,-2.68197 -2.83121,-3.26032 -1.51953,-3.76367 1.81123,-0.6951 2.03108,-4.28411 0.44141,-7.20117 -0.73232,-1.3424 -1.02341,-5.98271 -0.85938,-13.66406 0.22353,-10.46786 0.48065,-12.03113 2.57618,-15.64258 3.06757,-5.28697 7.18366,-7.82892 11.53125,-7.12305 3.14464,0.51079 3.50274,0.2758 7.55273,-4.93945 4.1105,-5.29307 4.44744,-5.50832 10.18945,-6.48438 3.26646,-0.55549 7.50865,-1.67837 9.42774,-2.49609 3.2423,-1.382 3.49087,-1.76632 3.50976,-5.42969 0.0249,-4.77476 1.36533,-6.55181 9.14258,-12.1289 8.13642,-5.83496 33.53701,-32.76145 39.625,-42.00586 6.36132,-9.65937 7.3178,-10.48595 10.29883,-8.89063 2.01233,1.07703 2.91887,0.89038 8.10938,-1.67969 8.84057,-4.37714 12.25558,-7.64224 14.6289,-13.98828 1.82729,-4.88651 1.92895,-5.94024 0.90625,-9.35351 -1.06424,-3.55233 -0.99222,-4.01819 0.93945,-6.07422 1.1503,-1.22457 5.12589,-3.68585 8.83399,-5.47071 4.66341,-2.24472 7.70653,-4.46514 9.875,-7.20312 l 3.13672,-3.95898 0.82031,2.46289 c 0.45165,1.35491 1.10011,2.45173 1.44141,2.43359 1.01661,-0.0498 10.38991,-3.38016 10.87304,-3.86328 0.6152,-0.61532 -3.24894,-22.2959 -4.28125,-24.02149 -0.45929,-0.76766 -2.11646,-4.11543 -3.68164,-7.43945 -2.31405,-4.914664 -2.6625,-6.442162 -1.86914,-8.183594 2.03637,-4.469371 1.24399,-7.142683 -2.78711,-9.408203 -4.21564,-2.369348 -7.40234,-5.451453 -7.40234,-7.15625 0,-2.028303 6.58606,-9.179042 9.84375,-10.6875 1.7475,-0.809303 3.41399,-1.708838 3.70312,-1.998047 0.28929,-0.289274 -2.5982,-2.876648 -6.41601,-5.75 -3.81797,-2.873484 -7.20338,-5.911349 -7.52539,-6.75 -0.32602,-0.850133 0.46785,-3.538072 1.79492,-6.076172 1.3093,-2.504013 2.1308,-4.957811 1.82617,-5.451172 -1.16277,-1.881069 2.44515,-1.909164 5.46485,-0.04297 3.75696,2.322059 4.33398,2.39486 4.33398,0.554688 0,-2.187717 1.68691,-1.663131 5.98828,1.861328 4.58317,3.755603 5.65158,3.962168 7.25391,1.396484 0.63923,-1.02356 1.41223,-1.861328 1.71875,-1.861328 1.17649,0 2.97411,5.401012 4.02539,12.09375 1.34521,8.569561 -0.0152,8.115654 24.875,8.265625 16.75884,0.100997 18.45418,0.263744 20.46875,1.953125 1.45156,1.216762 1.85138,2.085049 1.17968,2.558594 -0.55925,0.394231 -1.2999,2.170864 -1.64648,3.949219 -0.95834,4.916787 -4.97098,9.96608 -10.38281,13.0625 -6.1827,3.534928 -7.76461,6.791494 -6.1836,12.703125 0.90732,3.392058 6.28909,10.546878 7.9336,10.546878 0.21789,0 1.12761,-2.99104 2.02344,-6.646488 1.51483,-6.181239 3.84099,-10.103515 5.99218,-10.103515 1.62244,0 3.51257,4.920892 6.97461,18.164063 4.69773,17.96956 5.04217,18.9335 7.19922,20.08789 2.96277,1.5857 3.50051,-0.31516 3.51563,-12.46094 0.0114,-8.78639 0.28436,-11.0649 1.38281,-11.48632 0.75375,-0.28928 1.63016,-1.90924 1.94726,-3.59961 0.54925,-2.928092 -0.77142,-14.352331 -2.04296,-17.666021 -0.54244,-1.413774 0.1075,-1.5009 6.8789,-0.910156 8.66332,0.755641 7.87712,1.439208 11.76172,-10.212891 1.66258,-4.98695 2.41165,-9.088576 2.30469,-12.630859 -0.12858,-4.285198 0.3372,-6.085119 2.53711,-9.828125 2.34516,-3.989839 2.75319,-5.779031 3.1582,-13.835938 l 0.46484,-9.251953 9.01172,-8.082031 c 10.43543,-9.3578644 16.32664,-12.7230621 19.39649,-11.080078 2.61902,1.4015221 2.97522,0.87806 1.76562,-2.5917969 -0.903,-2.5905813 -0.67116,-3.36955608 2.32227,-7.8144531 1.82876,-2.7156265 3.32617,-5.2639165 3.32617,-5.6621094 0,-0.3981917 -1.36213,-1.5521836 -3.02539,-2.5664066 -2.22391,-1.35579 -4.6858,-1.847656 -9.30469,-1.847656 -3.4543,-0.0021 -6.27929,-0.138083 -6.27929,-0.302734 0,-0.164652 0.66944,-2.266625 1.48828,-4.669922 1.95817,-5.747048 1.29159,-7.4762 -2.55664,-6.63086 -2.92056,0.64121 -2.92913,0.631171 -2.39844,-2.638671 0.40649,-2.505286 0.11373,-3.661051 -1.23828,-4.884766 -1.69191,-1.530952 -1.95455,-1.451237 -5.86133,1.75 -7.16111,5.868062 -8.29058,6.002277 -17.48828,2.082031 -1.12441,-0.479245 -3.12038,1.00808 -7.44336,5.544922 -3.24873,3.409598 -7.66355,7.101571 -9.81055,8.205078 -2.14681,1.10348 -7.11255,5.5660336 -11.0332,9.9160159 -3.92069,4.3499816 -7.81519,8.3121893 -8.65625,8.8066406 -2.28843,1.3449408 -10.60987,4.1552106 -12.40821,4.1894531 -3.2725,0.063229 -2.55559,1.9425635 1.49024,3.9082034 4.77003,2.317434 4.80141,2.368214 5.67187,9.335937 l 0.64063,5.132813 -10.0918,1.642578 c -18.85296,3.069388 -39.98579,3.570217 -44.79297,1.060547 -3.76535,-1.965781 -4.52267,-3.86372 -5.48437,-13.746094 -0.72314,-7.4281395 -0.86103,-7.7821749 -3.1543,-8.0488281 -1.35171,-0.1571547 -3.37642,0.5129981 -4.63867,1.5351562 -2.15958,1.7483659 -2.25651,2.3565199 -2.71875,16.9941409 l -0.48047,15.179687 -3.59765,0.84961 c -5.58036,1.315657 -35.59434,-1.816828 -38.21094,-3.988282 -0.67998,-0.564543 -3.59952,-1.642181 -6.48828,-2.394531 -5.99131,-1.560656 -8.70864,-3.098377 -14.22071,-8.048828 -4.99385,-4.485042 -7.05433,-4.946197 -16.18359,-3.611328 -8.8117,1.288643 -11.37813,0.852313 -18.93359,-3.220703 -3.10462,-1.673538 -8.47783,-3.961947 -11.93946,-5.085938 -3.46167,-1.12399 -8.4869,-3.700663 -11.16601,-5.7265622 -2.67901,-2.0258986 -9.17985,-5.7714323 -14.44727,-8.3222657 -5.26734,-2.5508323 -9.7985,-5.2141666 -10.06836,-5.9179687 -0.54811,-1.4286819 2.80415,-13.4129124 4.96094,-17.7382814 0.7655,-1.535196 3.50615,-4.96584 6.0918,-7.623047 4.19206,-4.30797 4.61849,-4.809885 -0.33008,-7.070312 -2.76798,-1.231638 -6.88872,-3.798024 -9.15625,-5.703125 -2.26723,-1.904954 -5.82561,-4.315135 -7.9082,-5.355469 -2.08249,-1.040391 -5.51831,-3.56288 -7.63477,-5.605469 -3.26627,-3.152307 -4.13222,-3.564005 -5.71875,-2.714844 -2.6629,1.425003 -3.64882,-0.151744 -5.22266,-8.34375 -0.72888,-3.794634 -2.21319,-9.145009 -3.29882,-11.890624 -1.0859,-2.745616 -1.72374,-5.7808 -1.41797,-6.744141 0.71599,-2.25529 5.04756,-3.435199 6.07226,-1.654297 2.82134,4.904621 2.93455,4.928322 8.12891,1.699219 2.66199,-1.654727 4.83984,-3.276398 4.83984,-3.603516 0,-0.326899 -0.77218,-2.788603 -1.7168,-5.470703 -1.1574,-3.28639 -2.74268,-5.633525 -4.85937,-7.195312 -4.19992,-3.098546 -4.88507,-4.557426 -3.81641,-8.123046 0.49384,-1.64737 0.83498,-4.24781 0.75977,-5.77734 -0.12658,-2.57009 0.1445,-2.81948 3.58398,-3.28907 4.9742,-0.67926 5.87404,-1.36029 6.54883,-4.95703 0.39636,-2.11233 1.81825,-4.03713 4.61328,-6.24804 3.22284,-2.54914 4.43131,-4.37406 5.97657,-9.0293 2.47381,-7.45319 2.43735,-9.65413 -0.20118,-12.13281 -3.2434,-3.04706 -12.63285,-6.01513 -15.52343,-4.90821 -1.28909,0.49384 -4.18615,1.17845 -6.4375,1.52344 -2.25139,0.34501 -6.64746,1.83711 -9.76954,3.31445 -9.24918,4.3769 -15.62896,4.71168 -16.63281,0.87305 -0.32904,-1.25766 -1.83743,-2.17512 -4.80273,-2.92187 -3.46859,-0.87348 -4.85729,-1.8681 -7.03906,-5.03907 -1.49515,-2.17315 -4.93272,-5.75072 -7.63868,-7.95117 -2.70599,-2.20031 -7.43349,-6.39066 -10.5039,-9.31055 -5.47367,-5.20479 -5.71121,-5.31828 -12.14453,-5.87304 -1.54522,-0.13321 -2.7523,-0.22346 -3.79688,-0.23438 z" id="ellipse1215" transform="scale(0.26458333)"/>
    <path style="fill:#990000;stroke-width:0.347516" d="m -216.95677,-98.436436 c -43.30052,0 -81.55164,21.724978 -104.45296,54.86239 l 24.53152,14.168933 c 17.93949,-24.730994 47.0537,-40.833159 79.92179,-40.833159 32.8667,0 61.983,16.101817 79.92179,40.833159 l 24.53152,-14.168933 c -22.90098,-33.135674 -61.15244,-54.86239 -104.45296,-54.86239 z" id="path1217"/>
    <path style="fill:#006699;stroke-width:0.347516" d="m -334.76825,-18.709258 c -5.84766,14.5824769 -9.07608,30.495246 -9.07608,47.157955 0,65.277453 49.37163,119.090343 112.7864,126.110173 v -28.44386 c -47.80086,-6.85093 -84.59241,-47.981567 -84.59241,-97.665965 0,-11.530242 1.98241,-22.5962019 5.62177,-32.884768 z" id="path1219"/>
    <path style="fill:#006699;stroke-width:0.347516" d="m -99.145284,-18.709258 -24.742806,14.2745775 c 3.63919,10.2885661 5.62177,21.3545265 5.62177,32.8847675 0,49.687874 -36.78807,90.816423 -84.59241,97.665963 v 28.44386 c 63.41477,-7.01913 112.786401,-60.832718 112.786401,-126.11017 0,-16.664447 -3.228114,-32.5768686 -9.076082,-47.157955 z" id="path1221"/>
    <path style="fill:#ffffff;fill-rule:evenodd;stroke-width:0.381025" d="m -212.70459,10.978872 1.48036,1.375652 c 0.8141,0.756561 1.45917,1.437376 1.43391,1.513123 -0.0251,0.07574 -0.67815,1.057877 -1.45105,2.18228 l -1.40496,2.044425 -1.59652,0.521775 -1.59616,0.521775 -3.36445,3.465761 c -1.85046,1.906227 -3.43443,3.46618 -3.51989,3.46618 -0.0855,0 -0.62237,-0.470488 -1.19352,-1.045074 l -1.0386,-1.044693 3.53092,-3.530153 3.53088,-3.530498 0.51681,-1.481156 0.51721,-1.481118 2.07753,-1.489121 z m -30.01367,1.751189 c 0.28079,-0.0038 0.84949,0.15406 2.34147,0.570889 l 2.40853,0.672965 1.32768,1.224803 c 1.48751,1.372565 1.33469,1.056886 2.14611,4.441603 l 0.44249,1.845606 15.35072,15.303469 2.43211,0.567841 2.43179,0.567841 1.28385,1.304437 1.28425,1.304057 0.64672,2.452313 c 0.63501,2.407388 0.64236,2.457684 0.39531,2.730726 -0.25092,0.277225 -0.25885,0.270729 -2.48048,-1.948064 -2.88946,-2.885651 -2.53914,-2.859322 -5.01961,-0.373999 -1.54585,1.548789 -1.84831,1.917049 -1.84831,2.252008 0,0.338441 0.34791,0.748751 2.24629,2.649606 2.22141,2.224269 2.24331,2.252312 1.99721,2.524287 -0.13694,0.151279 -0.31509,0.270913 -0.39612,0.265841 -0.081,-0.0051 -1.18794,-0.297439 -2.45954,-0.649723 l -2.31176,-0.640197 -2.69418,-2.483937 -0.57013,-2.447741 -0.56971,-2.447357 -7.65363,-7.679549 -7.65327,-7.679549 -2.44694,-0.574319 -2.44697,-0.5747 -1.29453,-1.279289 -1.29453,-1.278908 -0.63982,-2.467935 c -0.35198,-1.357362 -0.60312,-2.563381 -0.55835,-2.68005 0.2221,-0.578738 0.51431,-0.381596 2.75892,1.860085 1.70424,1.702075 2.32322,2.239433 2.57913,2.239433 0.25388,0 0.80727,-0.471822 2.25196,-1.919144 1.58922,-1.591996 1.91575,-1.985747 1.91575,-2.31179 0,-0.328371 -0.37002,-0.765325 -2.24934,-2.656465 -2.23292,-2.246939 -2.24739,-2.265228 -1.98464,-2.52505 0.0983,-0.09727 0.16322,-0.157766 0.33172,-0.159957 z m 13.25317,8.785663 4.64164,4.555529 4.64202,4.55591 -0.67369,0.680967 -0.67414,0.680967 -4.60926,-4.610778 -4.60925,-4.610777 0.64134,-0.626137 z m -8.27814,9.469983 0.80854,0.80019 0.80819,0.799808 -2.01737,2.032995 c -1.82957,1.843397 -2.01776,2.076736 -2.01776,2.504132 0,0.31868 0.10098,0.565783 0.31155,0.763611 0.6253,0.587464 0.87861,0.449913 3.15805,-1.716517 l 2.11408,-2.009369 0.84209,0.829109 0.84211,0.82949 -1.87041,1.886375 c -2.33211,2.352217 -2.47445,2.60438 -1.88939,3.348101 0.2076,0.263914 0.40077,0.354574 0.75595,0.354574 0.43437,0 0.65997,-0.180606 2.51937,-2.015848 l 2.04256,-2.015849 0.80015,0.808915 0.8002,0.808573 -4.91027,4.898832 c -4.42141,4.411121 -4.99751,4.939221 -5.78509,5.303861 -1.52208,0.704286 -3.21711,0.635663 -4.4538,-0.180526 -0.7694,-0.507829 -2.08276,-1.777974 -2.73343,-2.643509 -0.76186,-1.013678 -0.98971,-1.949245 -0.77885,-3.201445 0.30145,-1.790204 0.51171,-2.055779 5.80643,-7.343866 z" id="path1255"/>
  </g>
  <g id="g1" transform="matrix(1,0,0,0.96836328,227.51482,-243.03173)">
    <g id="text1533" style="font-style:normal;font-variant:normal;font-weight:600;font-stretch:normal;font-size:37.9426px;line-height:1.25;font-family:Montserrat;-inkscape-font-specification:'Montserrat Semi-Bold';letter-spacing:14.7054px;word-spacing:0px;fill:#666666;fill-opacity:1;stroke:none;stroke-width:0.931219" aria-label="USER GROUP">
      <path id="path965" style="font-style:normal;font-variant:normal;font-weight:600;font-stretch:normal;font-size:19.6072px;font-family:Montserrat;-inkscape-font-specification:'Montserrat Semi-Bold';letter-spacing:14.7054px;fill:#666666;fill-opacity:1;stroke-width:0.931219" d="m 162.80517,390.38214 q -2.84303,0 -4.43121,-1.58818 -1.58818,-1.60779 -1.58818,-4.58808 v -7.74482 h 2.54893 v 7.64679 q 0,4.03907 3.49007,4.03907 3.47047,0 3.47047,-4.03907 v -7.64679 h 2.50971 v 7.74482 q 0,2.98029 -1.58818,4.58808 -1.56857,1.58818 -4.41161,1.58818 z"/>
      <path id="path967" style="font-style:normal;font-variant:normal;font-weight:600;font-stretch:normal;font-size:19.6072px;font-family:Montserrat;-inkscape-font-specification:'Montserrat Semi-Bold';letter-spacing:14.7054px;fill:#666666;fill-opacity:1;stroke-width:0.931219" d="m 191.33357,390.38214 q -1.58818,0 -3.07832,-0.45097 -1.47054,-0.45096 -2.33326,-1.19603 l 0.88233,-1.98033 q 0.8431,0.66665 2.05875,1.098 1.23525,0.41175 2.4705,0.41175 1.52936,0 2.27443,-0.49017 0.76468,-0.49018 0.76468,-1.29408 0,-0.58821 -0.43136,-0.96075 -0.41175,-0.39214 -1.05879,-0.60782 -0.64703,-0.21568 -1.76464,-0.49018 -1.56857,-0.37253 -2.54893,-0.74507 -0.96075,-0.37253 -1.66661,-1.15682 -0.68625,-0.80389 -0.68625,-2.15679 0,-1.13721 0.60782,-2.05875 0.62743,-0.94114 1.86268,-1.49014 1.25486,-0.549 3.05872,-0.549 1.25486,0 2.4705,0.31371 1.21564,0.31372 2.09796,0.90193 l -0.80389,1.98032 q -0.90193,-0.52939 -1.88228,-0.80389 -0.98036,-0.2745 -1.9019,-0.2745 -1.50975,0 -2.25482,0.50979 -0.72547,0.50978 -0.72547,1.35289 0,0.58821 0.41175,0.96075 0.43136,0.37254 1.0784,0.58822 0.64703,0.21567 1.76464,0.49017 1.52936,0.35293 2.50972,0.74508 0.98035,0.37253 1.6666,1.15682 0.70586,0.78428 0.70586,2.11757 0,1.13721 -0.62743,2.05875 -0.60782,0.92154 -1.86268,1.47054 -1.25485,0.549 -3.05871,0.549 z"/>
      <path id="path969" style="font-style:normal;font-variant:normal;font-weight:600;font-stretch:normal;font-size:19.6072px;font-family:Montserrat;-inkscape-font-specification:'Montserrat Semi-Bold';letter-spacing:14.7054px;fill:#666666;fill-opacity:1;stroke-width:0.931219" d="m 224.41083,388.04889 v 2.13718 h -10.29376 v -13.72501 h 10.01926 v 2.13718 H 216.666 v 3.5685 h 6.62722 v 2.09797 H 216.666 v 3.78418 z"/>
      <path id="path971" style="font-style:normal;font-variant:normal;font-weight:600;font-stretch:normal;font-size:19.6072px;font-family:Montserrat;-inkscape-font-specification:'Montserrat Semi-Bold';letter-spacing:14.7054px;fill:#666666;fill-opacity:1;stroke-width:0.931219" d="m 250.93927,390.18607 -2.80383,-4.01947 q -0.17646,0.0196 -0.52939,0.0196 h -3.09793 v 3.99986 h -2.54893 v -13.72501 h 5.64686 q 1.78425,0 3.09793,0.58821 1.33329,0.58822 2.03914,1.68622 0.70586,1.098 0.70586,2.60775 0,1.54897 -0.76468,2.66657 -0.74507,1.11761 -2.15678,1.66661 l 3.15675,4.50965 z m -0.0588,-8.84283 q 0,-1.31368 -0.86272,-2.01954 -0.86271,-0.70585 -2.52932,-0.70585 h -2.98029 v 5.47039 h 2.98029 q 1.66661,0 2.52932,-0.70586 0.86272,-0.72546 0.86272,-2.03914 z"/>
      <path id="path973" style="font-style:normal;font-variant:normal;font-weight:600;font-stretch:normal;font-size:19.6072px;font-family:Montserrat;-inkscape-font-specification:'Montserrat Semi-Bold';letter-spacing:14.7054px;fill:#666666;fill-opacity:1;stroke-width:0.931219" d="m 300.4865,383.16671 h 2.41168 v 5.47039 q -1.05879,0.84311 -2.4705,1.29407 -1.41172,0.45097 -2.90186,0.45097 -2.09796,0 -3.78418,-0.90193 -1.68621,-0.92154 -2.64697,-2.52932 -0.96075,-1.60779 -0.96075,-3.62733 0,-2.01953 0.96075,-3.62732 0.96076,-1.60779 2.64697,-2.50972 1.70582,-0.92153 3.82339,-0.92153 1.72543,0 3.13715,0.56861 1.41171,0.5686 2.37246,1.6666 l -1.60778,1.56858 q -1.56857,-1.56858 -3.78418,-1.56858 -1.45093,0 -2.58815,0.60783 -1.1176,0.60782 -1.76464,1.70582 -0.62743,1.098 -0.62743,2.50971 0,1.3725 0.62743,2.4705 0.64704,1.098 1.76464,1.72543 1.13722,0.62743 2.56854,0.62743 1.60779,0 2.82343,-0.70586 z"/>
      <path id="path975" style="font-style:normal;font-variant:normal;font-weight:600;font-stretch:normal;font-size:19.6072px;font-family:Montserrat;-inkscape-font-specification:'Montserrat Semi-Bold';letter-spacing:14.7054px;fill:#666666;fill-opacity:1;stroke-width:0.931219" d="m 329.93643,390.18607 -2.80382,-4.01947 q -0.17647,0.0196 -0.5294,0.0196 h -3.09793 v 3.99986 h -2.54893 v -13.72501 h 5.64686 q 1.78425,0 3.09793,0.58821 1.33329,0.58822 2.03915,1.68622 0.70585,1.098 0.70585,2.60775 0,1.54897 -0.76467,2.66657 -0.74508,1.11761 -2.15679,1.66661 l 3.15675,4.50965 z m -0.0588,-8.84283 q 0,-1.31368 -0.86272,-2.01954 -0.86271,-0.70585 -2.52932,-0.70585 h -2.98029 v 5.47039 h 2.98029 q 1.66661,0 2.52932,-0.70586 0.86272,-0.72546 0.86272,-2.03914 z"/>
      <path id="path977" style="font-style:normal;font-variant:normal;font-weight:600;font-stretch:normal;font-size:19.6072px;font-family:Montserrat;-inkscape-font-specification:'Montserrat Semi-Bold';letter-spacing:14.7054px;fill:#666666;fill-opacity:1;stroke-width:0.931219" d="m 356.40605,390.38214 q -2.09796,0 -3.78418,-0.90193 -1.68621,-0.92154 -2.64696,-2.52932 -0.96075,-1.6274 -0.96075,-3.62733 0,-1.99993 0.96075,-3.60771 0.96075,-1.6274 2.64696,-2.52933 1.68622,-0.92153 3.78418,-0.92153 2.09797,0 3.78418,0.92153 1.68622,0.90193 2.64697,2.50972 0.96075,1.60779 0.96075,3.62732 0,2.01954 -0.96075,3.62733 -0.96075,1.60778 -2.64697,2.52932 -1.68621,0.90193 -3.78418,0.90193 z m 0,-2.23522 q 1.3725,0 2.47051,-0.60782 1.098,-0.62743 1.72542,-1.72543 0.62743,-1.11761 0.62743,-2.49011 0,-1.3725 -0.62743,-2.4705 -0.62742,-1.11761 -1.72542,-1.72543 -1.09801,-0.62743 -2.47051,-0.62743 -1.3725,0 -2.4705,0.62743 -1.098,0.60782 -1.72543,1.72543 -0.62743,1.098 -0.62743,2.4705 0,1.3725 0.62743,2.49011 0.62743,1.098 1.72543,1.72543 1.098,0.60782 2.4705,0.60782 z"/>
      <path id="path979" style="font-style:normal;font-variant:normal;font-weight:600;font-stretch:normal;font-size:19.6072px;font-family:Montserrat;-inkscape-font-specification:'Montserrat Semi-Bold';letter-spacing:14.7054px;fill:#666666;fill-opacity:1;stroke-width:0.931219" d="m 387.11084,390.38214 q -2.84304,0 -4.43122,-1.58818 -1.58818,-1.60779 -1.58818,-4.58808 v -7.74482 h 2.54893 v 7.64679 q 0,4.03907 3.49007,4.03907 3.47047,0 3.47047,-4.03907 v -7.64679 h 2.50972 v 7.74482 q 0,2.98029 -1.58818,4.58808 -1.56858,1.58818 -4.41161,1.58818 z"/>
      <path id="path981" style="font-style:normal;font-variant:normal;font-weight:600;font-stretch:normal;font-size:19.6072px;font-family:Montserrat;-inkscape-font-specification:'Montserrat Semi-Bold';letter-spacing:14.7054px;fill:#666666;fill-opacity:1;stroke-width:0.931219" d="m 417.03134,376.46106 q 1.78425,0 3.09793,0.58821 1.33329,0.58822 2.03915,1.68622 0.70586,1.098 0.70586,2.60775 0,1.49014 -0.70586,2.60775 -0.70586,1.098 -2.03915,1.68622 -1.31368,0.58821 -3.09793,0.58821 h -3.09793 v 3.96065 h -2.54893 v -13.72501 z m -0.11764,7.60757 q 1.66661,0 2.52932,-0.70585 0.86272,-0.70586 0.86272,-2.01954 0,-1.31368 -0.86272,-2.01954 -0.86271,-0.70585 -2.52932,-0.70585 h -2.98029 v 5.45078 z"/>
    </g>
    <g id="text1897" style="font-style:normal;font-variant:normal;font-weight:bold;font-stretch:normal;font-size:49.0179px;line-height:1.25;font-family:Montserrat;-inkscape-font-specification:'Montserrat Bold';letter-spacing:0px;word-spacing:0px;opacity:1;fill:#484848;fill-opacity:1;stroke:none;stroke-width:0.384078" aria-label="INDIC">
      <path id="path954" style="font-style:normal;font-variant:normal;font-weight:bold;font-stretch:normal;font-size:49.0179px;line-height:1.25;font-family:Montserrat;-inkscape-font-specification:'Montserrat Bold';letter-spacing:2.80113px;word-spacing:2.74764px;fill:#484848;fill-opacity:1;stroke-width:0.384078" d="m 212.80883,287.70332 h 7.94089 v 34.31252 h -7.94089 z"/>
      <path id="path956" style="font-style:normal;font-variant:normal;font-weight:bold;font-stretch:normal;font-size:49.0179px;line-height:1.25;font-family:Montserrat;-inkscape-font-specification:'Montserrat Bold';letter-spacing:2.80113px;word-spacing:2.74764px;fill:#484848;fill-opacity:1;stroke-width:0.384078" d="m 263.15726,287.70332 v 34.31252 h -6.51938 l -17.10724,-20.8326 v 20.8326 h -7.84286 v -34.31252 h 6.5684 l 17.05822,20.8326 v -20.8326 z"/>
      <path id="path958" style="font-style:normal;font-variant:normal;font-weight:bold;font-stretch:normal;font-size:49.0179px;line-height:1.25;font-family:Montserrat;-inkscape-font-specification:'Montserrat Bold';letter-spacing:2.80113px;word-spacing:2.74764px;fill:#484848;fill-opacity:1;stroke-width:0.384078" d="m 274.09529,287.70332 h 15.58769 q 5.58804,0 9.85259,2.15679 4.31358,2.10777 6.66643,5.98018 2.40188,3.87241 2.40188,9.01929 0,5.14688 -2.40188,9.01929 -2.35285,3.87241 -6.66643,6.0292 -4.26455,2.10777 -9.85259,2.10777 h -15.58769 z m 15.19555,27.79314 q 5.14687,0 8.18598,-2.84304 3.08813,-2.89205 3.08813,-7.79384 0,-4.90179 -3.08813,-7.74482 -3.03911,-2.89206 -8.18598,-2.89206 h -7.25465 v 21.27376 z"/>
      <path id="path960" style="font-style:normal;font-variant:normal;font-weight:bold;font-stretch:normal;font-size:49.0179px;line-height:1.25;font-family:Montserrat;-inkscape-font-specification:'Montserrat Bold';letter-spacing:2.80113px;word-spacing:2.74764px;fill:#484848;fill-opacity:1;stroke-width:0.384078" d="m 317.38511,287.70332 h 7.9409 v 34.31252 h -7.9409 z"/>
      <path id="path962" style="font-style:normal;font-variant:normal;font-weight:bold;font-stretch:normal;font-size:49.0179px;line-height:1.25;font-family:Montserrat;-inkscape-font-specification:'Montserrat Bold';letter-spacing:2.80113px;word-spacing:2.74764px;fill:#484848;fill-opacity:1;stroke-width:0.384078" d="m 352.68506,322.60405 q -5.24491,0 -9.50947,-2.25482 -4.21554,-2.30384 -6.66643,-6.32331 -2.40188,-4.06848 -2.40188,-9.16634 0,-5.09786 2.40188,-9.11732 2.45089,-4.06849 6.66643,-6.32331 4.26456,-2.30384 9.55849,-2.30384 4.46063,0 8.03893,1.56857 3.62732,1.56857 6.07822,4.50965 l -5.09786,4.70571 q -3.48027,-4.01946 -8.62715,-4.01946 -3.18616,0 -5.68607,1.42151 -2.49991,1.3725 -3.92143,3.87242 -1.3725,2.49991 -1.3725,5.68607 0,3.18616 1.3725,5.68607 1.42152,2.49992 3.92143,3.92144 2.49991,1.3725 5.68607,1.3725 5.14688,0 8.62715,-4.06849 l 5.09786,4.70572 q -2.4509,2.99009 -6.07822,4.55866 -3.62732,1.56857 -8.08795,1.56857 z"/>
    </g>
    <g id="text1897-3" style="font-style:normal;font-variant:normal;font-weight:bold;font-stretch:normal;font-size:36.8715px;line-height:1.25;font-family:Montserrat;-inkscape-font-specification:'Montserrat Bold';letter-spacing:0px;word-spacing:0px;opacity:1;fill:#000000;fill-opacity:1;stroke:none;stroke-width:0.471556" aria-label="MEDIAWIKI DEVELOPERS">
      <path id="path915" style="font-style:normal;font-variant:normal;font-weight:bold;font-stretch:normal;font-size:36.8715px;line-height:1.25;font-family:Montserrat;-inkscape-font-specification:'Montserrat Bold';letter-spacing:3.43912px;word-spacing:3.37345px;fill:#000000;fill-opacity:1;stroke-width:0.471556" d="m 33.487158,363.49738 -0.03687,-15.48603 -7.595527,12.75753 h -2.69162 l -7.558656,-12.42569 v 15.15419 h -5.604467 v -25.81005 h 4.94078 l 9.660332,16.0391 9.512845,-16.0391 h 4.903909 l 0.07374,25.81005 z"/>
      <path id="path917" style="font-style:normal;font-variant:normal;font-weight:bold;font-stretch:normal;font-size:36.8715px;line-height:1.25;font-family:Montserrat;-inkscape-font-specification:'Montserrat Bold';letter-spacing:3.43912px;word-spacing:3.37345px;fill:#000000;fill-opacity:1;stroke-width:0.471556" d="m 68.635764,358.70408 v 4.7933 h -19.98435 v -25.81005 h 19.50502 v 4.79329 h -13.56871 v 5.60447 H 66.57096 v 4.64581 H 54.587724 v 5.97318 z"/>
      <path id="path919" style="font-style:normal;font-variant:normal;font-weight:bold;font-stretch:normal;font-size:36.8715px;line-height:1.25;font-family:Montserrat;-inkscape-font-specification:'Montserrat Bold';letter-spacing:3.43912px;word-spacing:3.37345px;fill:#000000;fill-opacity:1;stroke-width:0.471556" d="m 76.831292,337.68733 h 11.725135 q 4.203351,0 7.411171,1.62235 3.244691,1.58547 5.014522,4.49832 1.8067,2.91285 1.8067,6.78435 0,3.87151 -1.8067,6.78436 -1.769831,2.91285 -5.014522,4.53519 -3.20782,1.58548 -7.411171,1.58548 H 76.831292 Z m 11.430163,20.90614 q 3.871507,0 6.15754,-2.13855 2.322904,-2.17542 2.322904,-5.86257 0,-3.68715 -2.322904,-5.82569 -2.286033,-2.17542 -6.15754,-2.17542 h -5.456981 v 16.00223 z"/>
      <path id="path921" style="font-style:normal;font-variant:normal;font-weight:bold;font-stretch:normal;font-size:36.8715px;line-height:1.25;font-family:Montserrat;-inkscape-font-specification:'Montserrat Bold';letter-spacing:3.43912px;word-spacing:3.37345px;fill:#000000;fill-opacity:1;stroke-width:0.471556" d="m 110.7262,337.68733 h 5.97319 v 25.81005 h -5.97319 z"/>
      <path id="path923" style="font-style:normal;font-variant:normal;font-weight:bold;font-stretch:normal;font-size:36.8715px;line-height:1.25;font-family:Montserrat;-inkscape-font-specification:'Montserrat Bold';letter-spacing:3.43912px;word-spacing:3.37345px;fill:#000000;fill-opacity:1;stroke-width:0.471556" d="m 143.25691,357.96665 h -11.98324 l -2.28603,5.53073 h -6.12067 l 11.50391,-25.81005 h 5.89944 l 11.54077,25.81005 h -6.26815 z m -1.88045,-4.53519 -4.09273,-9.88156 -4.09274,9.88156 z"/>
      <path id="path925" style="font-style:normal;font-variant:normal;font-weight:bold;font-stretch:normal;font-size:36.8715px;line-height:1.25;font-family:Montserrat;-inkscape-font-specification:'Montserrat Bold';letter-spacing:3.43912px;word-spacing:3.37345px;fill:#000000;fill-opacity:1;stroke-width:0.471556" d="m 195.55071,337.68733 -8.44358,25.81005 h -6.41564 l -5.67821,-17.47709 -5.86256,17.47709 h -6.37877 l -8.48045,-25.81005 h 6.19442 l 5.82569,18.14077 6.0838,-18.14077 h 5.53072 l 5.89944,18.28826 6.01005,-18.28826 z"/>
      <path id="path927" style="font-style:normal;font-variant:normal;font-weight:bold;font-stretch:normal;font-size:36.8715px;line-height:1.25;font-family:Montserrat;-inkscape-font-specification:'Montserrat Bold';letter-spacing:3.43912px;word-spacing:3.37345px;fill:#000000;fill-opacity:1;stroke-width:0.471556" d="m 202.30815,337.68733 h 5.97318 v 25.81005 h -5.97318 z"/>
      <path id="path929" style="font-style:normal;font-variant:normal;font-weight:bold;font-stretch:normal;font-size:36.8715px;line-height:1.25;font-family:Montserrat;-inkscape-font-specification:'Montserrat Bold';letter-spacing:3.43912px;word-spacing:3.37345px;fill:#000000;fill-opacity:1;stroke-width:0.471556" d="m 227.24333,353.35771 -3.46592,3.61341 v 6.52626 h -5.93631 v -25.81005 h 5.93631 v 12.05698 l 11.43016,-12.05698 h 6.63687 l -10.69273,11.50391 11.31954,14.30614 h -6.96871 z"/>
      <path id="path931" style="font-style:normal;font-variant:normal;font-weight:bold;font-stretch:normal;font-size:36.8715px;line-height:1.25;font-family:Montserrat;-inkscape-font-specification:'Montserrat Bold';letter-spacing:3.43912px;word-spacing:3.37345px;fill:#000000;fill-opacity:1;stroke-width:0.471556" d="m 248.56511,337.68733 h 5.97318 v 25.81005 h -5.97318 z"/>
      <path id="path933" style="font-style:normal;font-variant:normal;font-weight:bold;font-stretch:normal;font-size:36.8715px;line-height:1.25;font-family:Montserrat;-inkscape-font-specification:'Montserrat Bold';letter-spacing:3.43912px;word-spacing:3.37345px;fill:#000000;fill-opacity:1;stroke-width:0.471556" d="m 281.34523,337.68733 h 11.72514 q 4.20335,0 7.41117,1.62235 3.24469,1.58547 5.01452,4.49832 1.8067,2.91285 1.8067,6.78435 0,3.87151 -1.8067,6.78436 -1.76983,2.91285 -5.01452,4.53519 -3.20782,1.58548 -7.41117,1.58548 h -11.72514 z m 11.43016,20.90614 q 3.87151,0 6.15754,-2.13855 2.32291,-2.17542 2.32291,-5.86257 0,-3.68715 -2.32291,-5.82569 -2.28603,-2.17542 -6.15754,-2.17542 h -5.45698 v 16.00223 z"/>
      <path id="path935" style="font-style:normal;font-variant:normal;font-weight:bold;font-stretch:normal;font-size:36.8715px;line-height:1.25;font-family:Montserrat;-inkscape-font-specification:'Montserrat Bold';letter-spacing:3.43912px;word-spacing:3.37345px;fill:#000000;fill-opacity:1;stroke-width:0.471556" d="m 335.22448,358.70408 v 4.7933 h -19.98435 v -25.81005 h 19.50502 v 4.79329 h -13.56871 v 5.60447 h 11.98323 v 4.64581 h -11.98323 v 5.97318 z"/>
      <path id="path937" style="font-style:normal;font-variant:normal;font-weight:bold;font-stretch:normal;font-size:36.8715px;line-height:1.25;font-family:Montserrat;-inkscape-font-specification:'Montserrat Bold';letter-spacing:3.43912px;word-spacing:3.37345px;fill:#000000;fill-opacity:1;stroke-width:0.471556" d="m 367.8658,337.68733 -11.17206,25.81005 h -5.89944 l -11.13519,-25.81005 h 6.45251 l 7.85363,18.43575 7.96424,-18.43575 z"/>
      <path id="path939" style="font-style:normal;font-variant:normal;font-weight:bold;font-stretch:normal;font-size:36.8715px;line-height:1.25;font-family:Montserrat;-inkscape-font-specification:'Montserrat Bold';letter-spacing:3.43912px;word-spacing:3.37345px;fill:#000000;fill-opacity:1;stroke-width:0.471556" d="m 393.42773,358.70408 v 4.7933 h -19.98435 v -25.81005 h 19.50502 v 4.79329 h -13.56871 v 5.60447 h 11.98323 v 4.64581 h -11.98323 v 5.97318 z"/>
      <path id="path941" style="font-style:normal;font-variant:normal;font-weight:bold;font-stretch:normal;font-size:36.8715px;line-height:1.25;font-family:Montserrat;-inkscape-font-specification:'Montserrat Bold';letter-spacing:3.43912px;word-spacing:3.37345px;fill:#000000;fill-opacity:1;stroke-width:0.471556" d="m 401.62325,337.68733 h 5.97318 v 20.94301 h 12.94189 v 4.86704 h -18.91507 z"/>
      <path id="path943" style="font-style:normal;font-variant:normal;font-weight:bold;font-stretch:normal;font-size:36.8715px;line-height:1.25;font-family:Montserrat;-inkscape-font-specification:'Montserrat Bold';letter-spacing:3.43912px;word-spacing:3.37345px;fill:#000000;fill-opacity:1;stroke-width:0.471556" d="m 439.38962,363.93983 q -4.01899,0 -7.26368,-1.73296 -3.20782,-1.73296 -5.0514,-4.75642 -1.8067,-3.06033 -1.8067,-6.8581 0,-3.79776 1.8067,-6.82122 1.84358,-3.06034 5.0514,-4.7933 3.24469,-1.73296 7.26368,-1.73296 4.01899,0 7.22681,1.73296 3.20782,1.73296 5.0514,4.7933 1.84357,3.02346 1.84357,6.82122 0,3.79777 -1.84357,6.8581 -1.84358,3.02346 -5.0514,4.75642 -3.20782,1.73296 -7.22681,1.73296 z m 0,-5.08826 q 2.28603,0 4.12961,-1.0324 1.84357,-1.06928 2.87597,-2.94972 1.06928,-1.88045 1.06928,-4.2771 0,-2.39664 -1.06928,-4.27709 -1.0324,-1.88045 -2.87597,-2.91285 -1.84358,-1.06927 -4.12961,-1.06927 -2.28603,0 -4.12961,1.06927 -1.84357,1.0324 -2.91285,2.91285 -1.0324,1.88045 -1.0324,4.27709 0,2.39665 1.0324,4.2771 1.06928,1.88044 2.91285,2.94972 1.84358,1.0324 4.12961,1.0324 z"/>
      <path id="path945" style="font-style:normal;font-variant:normal;font-weight:bold;font-stretch:normal;font-size:36.8715px;line-height:1.25;font-family:Montserrat;-inkscape-font-specification:'Montserrat Bold';letter-spacing:3.43912px;word-spacing:3.37345px;fill:#000000;fill-opacity:1;stroke-width:0.471556" d="m 472.62093,337.68733 q 3.42905,0 5.93631,1.14302 2.54414,1.14301 3.90838,3.24469 1.36425,2.10167 1.36425,4.97765 0,2.8391 -1.36425,4.97765 -1.36424,2.10168 -3.90838,3.24469 -2.50726,1.10615 -5.93631,1.10615 h -5.19888 v 7.1162 h -5.97318 v -25.81005 z m -0.33184,13.82681 q 2.69162,0 4.09273,-1.14302 1.40112,-1.17988 1.40112,-3.31843 0,-2.17542 -1.40112,-3.31844 -1.40111,-1.17988 -4.09273,-1.17988 h -4.86704 v 8.95977 z"/>
      <path id="path947" style="font-style:normal;font-variant:normal;font-weight:bold;font-stretch:normal;font-size:36.8715px;line-height:1.25;font-family:Montserrat;-inkscape-font-specification:'Montserrat Bold';letter-spacing:3.43912px;word-spacing:3.37345px;fill:#000000;fill-opacity:1;stroke-width:0.471556" d="m 511.49349,358.70408 v 4.7933 h -19.98435 v -25.81005 h 19.50502 v 4.79329 h -13.56871 v 5.60447 h 11.98324 v 4.64581 h -11.98324 v 5.97318 z"/>
      <path id="path949" style="font-style:normal;font-variant:normal;font-weight:bold;font-stretch:normal;font-size:36.8715px;line-height:1.25;font-family:Montserrat;-inkscape-font-specification:'Montserrat Bold';letter-spacing:3.43912px;word-spacing:3.37345px;fill:#000000;fill-opacity:1;stroke-width:0.471556" d="m 536.1337,363.49738 -4.97765,-7.18995 h -0.29498 -5.19888 v 7.18995 h -5.97318 v -25.81005 h 11.17206 q 3.42905,0 5.93631,1.14302 2.54414,1.14301 3.90838,3.24469 1.36425,2.10167 1.36425,4.97765 0,2.87598 -1.40112,4.97765 -1.36424,2.0648 -3.90838,3.17095 l 5.78883,8.29609 z m -0.11062,-16.44469 q 0,-2.17542 -1.40111,-3.31844 -1.40112,-1.17988 -4.09274,-1.17988 h -4.86704 v 8.99664 h 4.86704 q 2.69162,0 4.09274,-1.17989 1.40111,-1.17988 1.40111,-3.31843 z"/>
      <path id="path951" style="font-style:normal;font-variant:normal;font-weight:bold;font-stretch:normal;font-size:36.8715px;line-height:1.25;font-family:Montserrat;-inkscape-font-specification:'Montserrat Bold';letter-spacing:3.43912px;word-spacing:3.37345px;fill:#000000;fill-opacity:1;stroke-width:0.471556" d="m 558.7091,363.93983 q -3.06034,0 -5.93631,-0.81117 -2.83911,-0.84804 -4.57207,-2.17542 l 2.02793,-4.49832 q 1.65922,1.21676 3.94525,1.95419 2.28604,0.73743 4.57207,0.73743 2.54413,0 3.76089,-0.73743 1.21676,-0.7743 1.21676,-2.02793 0,-0.92179 -0.73743,-1.51173 -0.70056,-0.62682 -1.84357,-0.99553 -1.10615,-0.36872 -3.02347,-0.81118 -2.94972,-0.70056 -4.83016,-1.40111 -1.88045,-0.70056 -3.24469,-2.24917 -1.32738,-1.5486 -1.32738,-4.1296 0,-2.24916 1.21676,-4.05587 1.21676,-1.84357 3.65028,-2.91285 2.47039,-1.06927 6.01005,-1.06927 2.47039,0 4.83017,0.58995 2.35977,0.58994 4.12961,1.69608 l -1.84358,4.5352 q -3.57653,-2.02793 -7.15307,-2.02793 -2.50726,0 -3.72402,0.81117 -1.17989,0.81117 -1.17989,2.13855 0,1.32737 1.36425,1.99106 1.40112,0.62681 4.24022,1.25363 2.94972,0.70056 4.83017,1.40111 1.88044,0.70056 3.20782,2.21229 1.36424,1.51173 1.36424,4.09274 0,2.21229 -1.25363,4.05586 -1.21676,1.80671 -3.68715,2.87598 -2.47039,1.06927 -6.01005,1.06927 z"/>
    </g>
  </g>
  <style id="style1424" type="text/css">
	.st0{display:none;}
	.st1{fill:#FFFFFF;}
</style>
  <style type="text/css" id="style3553">
	.st0{display:none;}
	.st1{fill:#FFFFFF;}
</style>
  <style type="text/css" id="style7399">
	.st0{display:none;}
	.st1{fill:#FFFFFF;}
</style>
</svg>